<svg width="659px" height="122.8px" xmlns="http://www.w3.org/2000/svg" viewBox="-79.51999511718748 13.620001220703124 659.039990234375 122.75999755859375" style="background: rgba(0, 0, 0, 0) none repeat scroll 0% 0%" preserveAspectRatio="xMidYMid"><defs><linearGradient id="editing-gradient-gradient" x1="0" x2="1" y1="0.5" y2="0.5" gradientUnits="objectBoundingBox"><stop offset="0" stop-color="#f590f5"></stop><stop offset="1" stop-color="#6e9af5"></stop></linearGradient></defs><g><g transform="matrix(1.4,0,0,1.3,-52.7,147.3)"><path d="M 3.6 -35.2 L -10.3 -35.2 L -2.2 -77.4 L 11.9 -77.4 L 3.6 -35.2 Z M 59.4 -33.9 L 59.4 -33.9 L 59.4 -33.9 Q 51.6 -33.9 51.6 -39.9 L 51.6 -39.9 L 51.6 -39.9 Q 51.6 -42.6 52.8 -47.6 L 52.8 -47.6 L 52.8 -47.6 Q 53.9 -52.7 54.3 -54.8 L 54.3 -54.8 L 54.3 -54.8 Q 55.2 -59.5 55.2 -60.9 L 55.2 -60.9 L 55.2 -60.9 Q 55.2 -64.2 52.7 -64.2 L 52.7 -64.2 L 52.7 -64.2 Q 51.1 -64.2 49.6 -62 L 49.6 -62 L 49.6 -62 Q 48.1 -59.8 47.4 -55.4 L 47.4 -55.4 L 43.4 -35.2 L 30.9 -33.9 L 34.4 -51.3 L 34.4 -51.3 Q 34.9 -54.2 35.4 -57.5 L 35.4 -57.5 L 35.4 -57.5 Q 36 -60.7 36 -61.2 L 36 -61.2 L 36 -61.2 Q 36 -64.2 33.8 -64.2 L 33.8 -64.2 L 33.8 -64.2 Q 32.3 -64.2 30.7 -62 L 30.7 -62 L 30.7 -62 Q 29.1 -59.8 28.2 -55.4 L 28.2 -55.4 L 24.3 -35.2 L 11.7 -33.9 L 18.4 -67.8 L 28.9 -69.1 L 27.8 -62.7 L 27.8 -62.7 Q 29.4 -66.1 32.5 -67.6 L 32.5 -67.6 L 32.5 -67.6 Q 35.6 -69.1 40.4 -69.1 L 40.4 -69.1 L 40.4 -69.1 Q 43.1 -69.1 44.9 -67.8 L 44.9 -67.8 L 44.9 -67.8 Q 46.7 -66.4 47.3 -64.3 L 47.3 -64.3 L 47.3 -64.3 Q 48.4 -66.5 51.2 -67.8 L 51.2 -67.8 L 51.2 -67.8 Q 53.9 -69.1 57.4 -69.1 L 57.4 -69.1 L 57.4 -69.1 Q 60.8 -69.1 62.5 -68.4 L 62.5 -68.4 L 62.5 -68.4 Q 64.2 -67.6 65.2 -66.4 L 65.2 -66.4 L 65.2 -66.4 Q 66.9 -64.2 66.9 -60.1 L 66.9 -60.1 L 66.9 -60.1 Q 66.9 -56.1 65.2 -47.7 L 65.2 -47.7 L 65.2 -47.7 Q 64.3 -43.6 64.3 -42.1 L 64.3 -42.1 L 64.3 -42.1 Q 64.3 -40.6 65.2 -39.7 L 65.2 -39.7 L 65.2 -39.7 Q 66 -38.8 67.3 -38.7 L 67.3 -38.7 L 67.3 -38.7 Q 66.7 -36.5 64.5 -35.2 L 64.5 -35.2 L 64.5 -35.2 Q 62.3 -33.9 59.4 -33.9 Z M 75 -37.1 L 75 -37.1 L 75 -37.1 Q 73.5 -38.8 72.9 -41.4 L 72.9 -41.4 L 72.9 -41.4 Q 72.2 -44 72.2 -48.3 L 72.2 -48.3 L 72.2 -48.3 Q 72.2 -52.6 73.7 -56.5 L 73.7 -56.5 L 73.7 -56.5 Q 75.1 -60.4 77.8 -63.2 L 77.8 -63.2 L 77.8 -63.2 Q 83.3 -69.1 92.4 -69.1 L 92.4 -69.1 L 92.4 -69.1 Q 95.7 -69.1 98 -68 L 98 -68 L 109 -69.1 L 104.2 -44.2 L 104.2 -44.2 Q 104.1 -43.4 104.1 -42 L 104.1 -42 L 104.1 -42 Q 104.1 -40.6 104.9 -39.7 L 104.9 -39.7 L 104.9 -39.7 Q 105.8 -38.8 107.1 -38.7 L 107.1 -38.7 L 107.1 -38.7 Q 106.4 -36.5 104.1 -35.2 L 104.1 -35.2 L 104.1 -35.2 Q 101.8 -33.9 99.1 -33.9 L 99.1 -33.9 L 99.1 -33.9 Q 96.5 -33.9 94.7 -34.9 L 94.7 -34.9 L 94.7 -34.9 Q 93 -35.9 92.5 -37.6 L 92.5 -37.6 L 92.5 -37.6 Q 91.4 -36 89.3 -34.9 L 89.3 -34.9 L 89.3 -34.9 Q 87.1 -33.9 84.2 -33.9 L 84.2 -33.9 L 84.2 -33.9 Q 81.3 -33.9 78.9 -34.7 L 78.9 -34.7 L 78.9 -34.7 Q 76.5 -35.5 75 -37.1 Z M 88.5 -63.1 L 88.5 -63.1 L 88.5 -63.1 Q 87.8 -61.9 87.2 -60 L 87.2 -60 L 87.2 -60 Q 86.5 -58 85.5 -52.8 L 85.5 -52.8 L 85.5 -52.8 Q 84.4 -47.6 84.4 -43.9 L 84.4 -43.9 L 84.4 -43.9 Q 84.4 -40.2 85 -39.1 L 85 -39.1 L 85 -39.1 Q 85.6 -38 86.6 -38 L 86.6 -38 L 86.6 -38 Q 88.6 -38 90.1 -40 L 90.1 -40 L 90.1 -40 Q 91.6 -41.9 92.2 -45.4 L 92.2 -45.4 L 95.6 -64.1 L 95.6 -64.1 Q 94.3 -65.3 92.7 -65.3 L 92.7 -65.3 L 92.7 -65.3 Q 91.1 -65.3 90.2 -64.8 L 90.2 -64.8 L 90.2 -64.8 Q 89.3 -64.3 88.5 -63.1 Z M 116.7 -61.9 L 116.7 -61.9 L 116.7 -61.9 Q 118.9 -65 122.2 -67.1 L 122.2 -67.1 L 122.2 -67.1 Q 125.5 -69.1 129.5 -69.1 L 129.5 -69.1 L 129.5 -69.1 Q 133.6 -69.1 135.5 -67.8 L 135.5 -67.8 L 148 -69.1 L 143.7 -44.5 L 143.7 -44.5 Q 141.4 -32 136.7 -27.1 L 136.7 -27.1 L 136.7 -27.1 Q 132.2 -22.4 123.3 -22.4 L 123.3 -22.4 L 123.3 -22.4 Q 116.6 -22.4 112.8 -24.5 L 112.8 -24.5 L 112.8 -24.5 Q 108.9 -26.6 108.9 -30.1 L 108.9 -30.1 L 108.9 -30.1 Q 108.9 -32.8 110.9 -34.3 L 110.9 -34.3 L 110.9 -34.3 Q 112.9 -35.8 116 -35.8 L 116 -35.8 L 116 -35.8 Q 118.6 -35.8 120.7 -34.6 L 120.7 -34.6 L 120.7 -34.6 Q 121.9 -33.9 122.5 -33 L 122.5 -33 L 122.5 -33 Q 121 -31.7 121 -29.6 L 121 -29.6 L 121 -29.6 Q 121 -26.9 123.6 -26.9 L 123.6 -26.9 L 123.6 -26.9 Q 127.9 -26.9 130.3 -37 L 130.3 -37 L 130.3 -37 Q 131 -39.7 131.6 -42.5 L 131.6 -42.5 L 131.6 -42.5 Q 128.7 -39 122.2 -39 L 122.2 -39 L 122.2 -39 Q 117.6 -39 115 -41.1 L 115 -41.1 L 115 -41.1 Q 112.4 -43.3 112.4 -48.4 L 112.4 -48.4 L 112.4 -48.4 Q 112.4 -51.6 113.5 -55.3 L 113.5 -55.3 L 113.5 -55.3 Q 114.6 -58.9 116.7 -61.9 Z M 125 -48.3 L 125 -48.3 L 125 -48.3 Q 125 -43.9 127.3 -43.9 L 127.3 -43.9 L 127.3 -43.9 Q 128.8 -43.9 130.3 -45.6 L 130.3 -45.6 L 130.3 -45.6 Q 131.4 -46.9 131.9 -48.9 L 131.9 -48.9 L 135.2 -65.3 L 135.2 -65.3 Q 134.8 -65.4 134.5 -65.5 L 134.5 -65.5 L 134.5 -65.5 Q 133.9 -65.8 133 -65.8 L 133 -65.8 L 133 -65.8 Q 129.1 -65.8 126.8 -59.4 L 126.8 -59.4 L 126.8 -59.4 Q 125 -54.4 125 -48.3 Z M 176.4 -46 L 176.4 -46 L 176.4 -46 Q 178 -44.9 178 -42.5 L 178 -42.5 L 178 -42.5 Q 178 -40.1 176.8 -38.6 L 176.8 -38.6 L 176.8 -38.6 Q 175.6 -37.1 173.6 -36 L 173.6 -36 L 173.6 -36 Q 169.5 -33.9 165.1 -33.9 L 165.1 -33.9 L 165.1 -33.9 Q 160.7 -33.9 158.1 -34.9 L 158.1 -34.9 L 158.1 -34.9 Q 155.5 -35.8 153.8 -37.6 L 153.8 -37.6 L 153.8 -37.6 Q 150.4 -41 150.4 -47.2 L 150.4 -47.2 L 150.4 -47.2 Q 150.4 -56.9 155.6 -62.8 L 155.6 -62.8 L 155.6 -62.8 Q 161.3 -69.1 171.1 -69.1 L 171.1 -69.1 L 171.1 -69.1 Q 177.1 -69.1 180.2 -66.6 L 180.2 -66.6 L 180.2 -66.6 Q 182.4 -64.6 182.4 -61.5 L 182.4 -61.5 L 182.4 -61.5 Q 182.4 -50.2 162.9 -50.2 L 162.9 -50.2 L 162.9 -50.2 Q 162.7 -48.6 162.7 -47.2 L 162.7 -47.2 L 162.7 -47.2 Q 162.7 -44.2 164 -43.1 L 164 -43.1 L 164 -43.1 Q 165.3 -42 167.7 -42 L 167.7 -42 L 167.7 -42 Q 170.2 -42 172.8 -43.1 L 172.8 -43.1 L 172.8 -43.1 Q 175.4 -44.2 176.4 -46 Z M 163.4 -53 L 163.4 -53 L 163.4 -53 Q 167.9 -53 170.6 -55.8 L 170.6 -55.8 L 170.6 -55.8 Q 173.2 -58.5 173.2 -62.8 L 173.2 -62.8 L 173.2 -62.8 Q 173.2 -64.3 172.6 -65.1 L 172.6 -65.1 L 172.6 -65.1 Q 172.1 -65.9 171 -65.9 L 171 -65.9 L 171 -65.9 Q 169.9 -65.9 169 -65.4 L 169 -65.4 L 169 -65.4 Q 168.1 -65 167.1 -63.6 L 167.1 -63.6 L 167.1 -63.6 Q 164.7 -60.4 163.4 -53 Z M 203.7 -57.7 L 203.7 -57.7 L 203.7 -57.7 Q 204.6 -60 204.6 -62.1 L 204.6 -62.1 L 204.6 -62.1 Q 204.6 -65.9 201.5 -65.9 L 201.5 -65.9 L 201.5 -65.9 Q 199.9 -65.9 198.6 -64.4 L 198.6 -64.4 L 198.6 -64.4 Q 197.3 -63 197.3 -61.2 L 197.3 -61.2 L 197.3 -61.2 Q 197.3 -59.9 198.3 -58.9 L 198.3 -58.9 L 198.3 -58.9 Q 199.8 -57.5 203.6 -55.2 L 203.6 -55.2 L 203.6 -55.2 Q 207.4 -52.9 208.8 -51 L 208.8 -51 L 208.8 -51 Q 210.2 -49.1 210.2 -46.5 L 210.2 -46.5 L 210.2 -46.5 Q 210.2 -43.9 209 -41.5 L 209 -41.5 L 209 -41.5 Q 207.7 -39.2 205.5 -37.5 L 205.5 -37.5 L 205.5 -37.5 Q 200.7 -33.9 193 -33.9 L 193 -33.9 L 193 -33.9 Q 188.9 -33.9 185.7 -36.1 L 185.7 -36.1 L 185.7 -36.1 Q 182.5 -38.2 182.5 -40.7 L 182.5 -40.7 L 182.5 -40.7 Q 182.5 -43.2 184.3 -44.7 L 184.3 -44.7 L 184.3 -44.7 Q 186.1 -46.1 188.8 -46.1 L 188.8 -46.1 L 188.8 -46.1 Q 191.5 -46.1 193.1 -45.1 L 193.1 -45.1 L 193.1 -45.1 Q 192.3 -43 192.3 -41.6 L 192.3 -41.6 L 192.3 -41.6 Q 192.3 -37.4 195.9 -37.4 L 195.9 -37.4 L 195.9 -37.4 Q 197.4 -37.4 198.5 -38.3 L 198.5 -38.3 L 198.5 -38.3 Q 199.5 -39.3 199.5 -41 L 199.5 -41 L 199.5 -41 Q 199.5 -44.2 194 -47.7 L 194 -47.7 L 194 -47.7 Q 189.5 -50.6 188.5 -51.8 L 188.5 -51.8 L 188.5 -51.8 Q 186.7 -53.8 186.7 -56.4 L 186.7 -56.4 L 186.7 -56.4 Q 186.7 -58.9 188 -61.4 L 188 -61.4 L 188 -61.4 Q 189.2 -63.8 191.4 -65.5 L 191.4 -65.5 L 191.4 -65.5 Q 196.1 -69.1 204.2 -69.1 L 204.2 -69.1 L 204.2 -69.1 Q 208.4 -69.1 210.8 -67.5 L 210.8 -67.5 L 210.8 -67.5 Q 213.3 -65.8 213.3 -63 L 213.3 -63 L 213.3 -63 Q 213.3 -60.2 211.6 -58.6 L 211.6 -58.6 L 211.6 -58.6 Q 209.9 -57 206.8 -57 L 206.8 -57 L 206.8 -57 Q 204.7 -57 203.7 -57.7 Z M 254.8 -55.8 L 267.7 -57 L 267.7 -57 Q 263.1 -46.8 263.1 -35.1 L 263.1 -35.1 L 263.1 -35.1 Q 261.4 -33.9 258.8 -33.9 L 258.8 -33.9 L 258.8 -33.9 Q 256.3 -33.9 254.7 -35.1 L 254.7 -35.1 L 254.7 -35.1 Q 253.1 -36.3 252.8 -37.5 L 252.8 -37.5 L 252.8 -37.5 Q 251.2 -35.8 248.6 -34.9 L 248.6 -34.9 L 248.6 -34.9 Q 246 -33.9 243.3 -33.9 L 243.3 -33.9 L 243.3 -33.9 Q 240.5 -33.9 238.1 -34.8 L 238.1 -34.8 L 238.1 -34.8 Q 235.7 -35.7 233.8 -37.7 L 233.8 -37.7 L 233.8 -37.7 Q 229.8 -42 229.8 -50.3 L 229.8 -50.3 L 229.8 -50.3 Q 229.8 -63.1 236.6 -70.8 L 236.6 -70.8 L 236.6 -70.8 Q 243.6 -78.7 256.1 -78.7 L 256.1 -78.7 L 256.1 -78.7 Q 264.8 -78.7 267.8 -74.2 L 267.8 -74.2 L 267.8 -74.2 Q 268.8 -72.8 268.8 -71.1 L 268.8 -71.1 L 268.8 -71.1 Q 268.8 -69.4 268.1 -68 L 268.1 -68 L 268.1 -68 Q 267.3 -66.6 266.2 -65.4 L 266.2 -65.4 L 266.2 -65.4 Q 263.4 -62.8 260 -62.8 L 260 -62.8 L 260 -62.8 Q 258.7 -62.8 257.4 -63.3 L 257.4 -63.3 L 257.4 -63.3 Q 257.7 -65.2 257.7 -67.5 L 257.7 -67.5 L 257.7 -67.5 Q 257.7 -69.7 257.5 -70.7 L 257.5 -70.7 L 257.5 -70.7 Q 257.3 -71.7 257 -72.6 L 257 -72.6 L 257 -72.6 Q 256.1 -74.3 254.3 -74.3 L 254.3 -74.3 L 254.3 -74.3 Q 252.5 -74.3 250.5 -72.3 L 250.5 -72.3 L 250.5 -72.3 Q 248.4 -70.4 246.8 -67.2 L 246.8 -67.2 L 246.8 -67.2 Q 243.3 -60 243.3 -51.4 L 243.3 -51.4 L 243.3 -51.4 Q 243.3 -47.4 244.9 -44.6 L 244.9 -44.6 L 244.9 -44.6 Q 246.5 -41.5 249.5 -41.5 L 249.5 -41.5 L 249.5 -41.5 Q 250.5 -41.5 251.4 -42 L 251.4 -42 L 251.4 -42 Q 252.3 -42.6 252.7 -42.9 L 252.7 -42.9 L 254.8 -55.8 Z M 273.6 -37.1 L 273.6 -37.1 L 273.6 -37.1 Q 272.1 -38.8 271.4 -41.4 L 271.4 -41.4 L 271.4 -41.4 Q 270.8 -44 270.8 -48.3 L 270.8 -48.3 L 270.8 -48.3 Q 270.8 -52.6 272.2 -56.5 L 272.2 -56.5 L 272.2 -56.5 Q 273.7 -60.4 276.4 -63.2 L 276.4 -63.2 L 276.4 -63.2 Q 281.9 -69.1 291 -69.1 L 291 -69.1 L 291 -69.1 Q 294.3 -69.1 296.6 -68 L 296.6 -68 L 307.6 -69.1 L 302.8 -44.2 L 302.8 -44.2 Q 302.6 -43.4 302.6 -42 L 302.6 -42 L 302.6 -42 Q 302.6 -40.6 303.5 -39.7 L 303.5 -39.7 L 303.5 -39.7 Q 304.4 -38.8 305.7 -38.7 L 305.7 -38.7 L 305.7 -38.7 Q 305 -36.5 302.7 -35.2 L 302.7 -35.2 L 302.7 -35.2 Q 300.3 -33.9 297.7 -33.9 L 297.7 -33.9 L 297.7 -33.9 Q 295.1 -33.9 293.3 -34.9 L 293.3 -34.9 L 293.3 -34.9 Q 291.6 -35.9 291.1 -37.6 L 291.1 -37.6 L 291.1 -37.6 Q 290 -36 287.9 -34.9 L 287.9 -34.9 L 287.9 -34.9 Q 285.7 -33.9 282.8 -33.9 L 282.8 -33.9 L 282.8 -33.9 Q 279.9 -33.9 277.5 -34.7 L 277.5 -34.7 L 277.5 -34.7 Q 275.1 -35.5 273.6 -37.1 Z M 287.1 -63.1 L 287.1 -63.1 L 287.1 -63.1 Q 286.4 -61.9 285.8 -60 L 285.8 -60 L 285.8 -60 Q 285.1 -58 284.1 -52.8 L 284.1 -52.8 L 284.1 -52.8 Q 283 -47.6 283 -43.9 L 283 -43.9 L 283 -43.9 Q 283 -40.2 283.6 -39.1 L 283.6 -39.1 L 283.6 -39.1 Q 284.2 -38 285.2 -38 L 285.2 -38 L 285.2 -38 Q 287.2 -38 288.7 -40 L 288.7 -40 L 288.7 -40 Q 290.2 -41.9 290.8 -45.4 L 290.8 -45.4 L 294.2 -64.1 L 294.2 -64.1 Q 292.9 -65.3 291.3 -65.3 L 291.3 -65.3 L 291.3 -65.3 Q 289.7 -65.3 288.8 -64.8 L 288.8 -64.8 L 288.8 -64.8 Q 287.9 -64.3 287.1 -63.1 Z M 326.3 -38.7 L 326.3 -38.7 L 326.3 -38.7 Q 324.3 -33.9 318 -33.9 L 318 -33.9 L 318 -33.9 Q 314.8 -33.9 312.8 -36.2 L 312.8 -36.2 L 312.8 -36.2 Q 311.1 -38 311.1 -40.1 L 311.1 -40.1 L 311.1 -40.1 Q 311.1 -44.9 313.3 -55.4 L 313.3 -55.4 L 318 -80 L 331 -81.3 L 324.8 -48.9 L 324.8 -48.9 Q 323.7 -44.2 323.7 -42.5 L 323.7 -42.5 L 323.7 -42.5 Q 323.7 -38.8 326.3 -38.7 Z M 347.1 -38.7 L 347.1 -38.7 L 347.1 -38.7 Q 345.1 -33.9 338.7 -33.9 L 338.7 -33.9 L 338.7 -33.9 Q 335.5 -33.9 333.5 -36.2 L 333.5 -36.2 L 333.5 -36.2 Q 331.8 -38 331.8 -40.1 L 331.8 -40.1 L 331.8 -40.1 Q 331.8 -44.9 334.1 -55.4 L 334.1 -55.4 L 338.7 -80 L 351.7 -81.3 L 345.5 -48.9 L 345.5 -48.9 Q 344.4 -44.2 344.4 -42.5 L 344.4 -42.5 L 344.4 -42.5 Q 344.4 -38.8 347.1 -38.7 Z M 378.4 -46 L 378.4 -46 L 378.4 -46 Q 380 -44.9 380 -42.5 L 380 -42.5 L 380 -42.5 Q 380 -40.1 378.8 -38.6 L 378.8 -38.6 L 378.8 -38.6 Q 377.6 -37.1 375.6 -36 L 375.6 -36 L 375.6 -36 Q 371.5 -33.9 367.1 -33.9 L 367.1 -33.9 L 367.1 -33.9 Q 362.7 -33.9 360.1 -34.9 L 360.1 -34.9 L 360.1 -34.9 Q 357.5 -35.8 355.8 -37.6 L 355.8 -37.6 L 355.8 -37.6 Q 352.4 -41 352.4 -47.2 L 352.4 -47.2 L 352.4 -47.2 Q 352.4 -56.9 357.6 -62.8 L 357.6 -62.8 L 357.6 -62.8 Q 363.3 -69.1 373 -69.1 L 373 -69.1 L 373 -69.1 Q 379.1 -69.1 382.1 -66.6 L 382.1 -66.6 L 382.1 -66.6 Q 384.4 -64.6 384.4 -61.5 L 384.4 -61.5 L 384.4 -61.5 Q 384.4 -50.2 364.9 -50.2 L 364.9 -50.2 L 364.9 -50.2 Q 364.7 -48.6 364.7 -47.2 L 364.7 -47.2 L 364.7 -47.2 Q 364.7 -44.2 366 -43.1 L 366 -43.1 L 366 -43.1 Q 367.3 -42 369.7 -42 L 369.7 -42 L 369.7 -42 Q 372.2 -42 374.7 -43.1 L 374.7 -43.1 L 374.7 -43.1 Q 377.3 -44.2 378.4 -46 Z M 365.4 -53 L 365.4 -53 L 365.4 -53 Q 369.9 -53 372.5 -55.8 L 372.5 -55.8 L 372.5 -55.8 Q 375.2 -58.5 375.2 -62.8 L 375.2 -62.8 L 375.2 -62.8 Q 375.2 -64.3 374.6 -65.1 L 374.6 -65.1 L 374.6 -65.1 Q 374.1 -65.9 373 -65.9 L 373 -65.9 L 373 -65.9 Q 371.9 -65.9 371 -65.4 L 371 -65.4 L 371 -65.4 Q 370 -65 369.1 -63.6 L 369.1 -63.6 L 369.1 -63.6 Q 366.7 -60.4 365.4 -53 Z M 406.6 -53.2 L 406.6 -53.2 L 406.6 -53.2 Q 408.9 -57.3 408.9 -61.4 L 408.9 -61.4 L 408.9 -61.4 Q 408.9 -64.2 406.9 -64.2 L 406.9 -64.2 L 406.9 -64.2 Q 405.4 -64.2 403.8 -61.6 L 403.8 -61.6 L 403.8 -61.6 Q 402.1 -58.9 401.6 -55.5 L 401.6 -55.5 L 398.3 -35.2 L 385 -33.9 L 391.5 -67.8 L 402.1 -69.1 L 401 -62.7 L 401 -62.7 Q 404.1 -69.1 411.1 -69.1 L 411.1 -69.1 L 411.1 -69.1 Q 414.8 -69.1 416.9 -67.2 L 416.9 -67.2 L 416.9 -67.2 Q 418.9 -65.3 418.9 -61.3 L 418.9 -61.3 L 418.9 -61.3 Q 418.9 -57.4 416.3 -54.9 L 416.3 -54.9 L 416.3 -54.9 Q 413.7 -52.4 409.3 -52.4 L 409.3 -52.4 L 409.3 -52.4 Q 407.4 -52.4 406.6 -53.2 Z M 440.2 -42.4 L 440.2 -42.4 L 440.2 -42.4 Q 436.9 -39 430.8 -39 L 430.8 -39 L 430.8 -39 Q 423.2 -39 421.6 -44.5 L 421.6 -44.5 L 421.6 -44.5 Q 421.1 -46.2 421.1 -48.1 L 421.1 -48.1 L 421.1 -48.1 Q 421.1 -49.9 421.5 -51.8 L 421.5 -51.8 L 424.5 -67.8 L 437.5 -69.1 L 434 -50.5 L 434 -50.5 Q 433.8 -49.7 433.7 -48.8 L 433.7 -48.8 L 433.7 -48.8 Q 433.5 -47.9 433.5 -46.9 L 433.5 -46.9 L 433.5 -46.9 Q 433.5 -46 433.8 -45.4 L 433.8 -45.4 L 433.8 -45.4 Q 434.1 -44.8 434.6 -44.4 L 434.6 -44.4 L 434.6 -44.4 Q 435.3 -43.9 436.7 -43.9 L 436.7 -43.9 L 436.7 -43.9 Q 438.1 -43.9 439.3 -45.6 L 439.3 -45.6 L 439.3 -45.6 Q 440.4 -47.2 441 -50.1 L 441 -50.1 L 444.5 -67.8 L 457.1 -69.1 L 452.3 -44 L 452.3 -44 Q 450 -31.7 445.1 -26.8 L 445.1 -26.8 L 445.1 -26.8 Q 442.6 -24.3 439.4 -23.3 L 439.4 -23.3 L 439.4 -23.3 Q 436.2 -22.3 432 -22.3 L 432 -22.3 L 432 -22.3 Q 425.3 -22.3 421.4 -24.4 L 421.4 -24.4 L 421.4 -24.4 Q 417.6 -26.6 417.6 -30.1 L 417.6 -30.1 L 417.6 -30.1 Q 417.6 -32.7 419.6 -34.2 L 419.6 -34.2 L 419.6 -34.2 Q 421.6 -35.7 424.6 -35.7 L 424.6 -35.7 L 424.6 -35.7 Q 427.3 -35.7 429.4 -34.6 L 429.4 -34.6 L 429.4 -34.6 Q 430.6 -33.9 431.2 -33 L 431.2 -33 L 431.2 -33 Q 429.7 -31.7 429.7 -29.6 L 429.7 -29.6 L 429.7 -29.6 Q 429.7 -26.7 432.2 -26.7 L 432.2 -26.7 L 432.2 -26.7 Q 436.5 -26.7 438.9 -36.5 L 438.9 -36.5 L 438.9 -36.5 Q 439.6 -39.4 440.2 -42.4 Z" fill="url(#editing-gradient-gradient)"></path></g></g><style>text {
  font-size: 64px;
  font-family: Arial Black;
  dominant-baseline: central;
  text-anchor: middle;
}</style></svg>